<svg width="235.0400146484375px" height="97.1199951171875px" xmlns="http://www.w3.org/2000/svg" viewBox="132.47999267578126 26.44000244140625 235.0400146484375 97.1199951171875" style="background: rgba(0, 0, 0, 0) none repeat scroll 0% 0%;" preserveAspectRatio="xMidYMid"><defs><filter id="editing-hole" x="-100%" y="-100%" width="300%" height="300%"><feFlood flood-color="#000" result="black"></feFlood><feMorphology operator="dilate" radius="2" in="SourceGraphic" result="erode"></feMorphology><feGaussianBlur in="erode" stdDeviation="4" result="blur"></feGaussianBlur><feOffset in="blur" dx="2" dy="2" result="offset"></feOffset><feComposite operator="atop" in="offset" in2="black" result="merge"></feComposite><feComposite operator="in" in="merge" in2="SourceGraphic" result="inner-shadow"></feComposite></filter></defs><g filter="url(#editing-hole)"><g transform="translate(171.44530487060547, 92.99999809265137)"><path d="M15.94-25.44L15.94-25.44L15.94-25.44Q17.66-25.44 19.01-25.06L19.01-25.06L19.01-25.06Q19.06-25.25 19.15-25.78L19.15-25.78L19.39-27.26L19.39-27.26Q19.58-28.22 19.87-29.81L19.87-29.81L20.64-33.60L30.19-34.56L24.86-6.72L24.86-6.72Q24.82-6.43 24.82-5.95L24.82-5.95L24.82-5.18L24.82-5.18Q24.82-4.13 25.34-3.34L25.34-3.34L25.34-3.34Q25.87-2.54 26.74-2.54L26.74-2.54L26.74-2.54Q25.78-0.29 22.85 0.67L22.85 0.67L22.85 0.67Q21.84 0.96 20.42 0.96L20.42 0.96L20.42 0.96Q19.01 0.96 17.71 0.22L17.71 0.22L17.71 0.22Q16.42-0.53 16.03-1.78L16.03-1.78L16.03-1.78Q15.26-0.53 13.73 0.22L13.73 0.22L13.73 0.22Q12.19 0.96 9.96 0.96L9.96 0.96L9.96 0.96Q7.73 0.96 5.88 0.38L5.88 0.38L5.88 0.38Q4.03-0.19 2.88-1.44L2.88-1.44L2.88-1.44Q0.77-3.89 0.77-9.46L0.77-9.46L0.77-9.46Q0.77-16.66 4.99-21.02L4.99-21.02L4.99-21.02Q9.22-25.44 15.94-25.44ZM15.60-22.56L15.60-22.56L15.60-22.56Q13.82-22.56 12.86-20.64L12.86-20.64L12.86-20.64Q11.90-18.72 10.92-13.97L10.92-13.97L10.92-13.97Q9.94-9.22 9.94-4.94L9.94-4.94L9.94-4.94Q9.94-2.02 11.66-2.02L11.66-2.02L11.66-2.02Q13.20-2.02 14.28-3.55L14.28-3.55L14.28-3.55Q15.36-5.09 15.79-7.63L15.79-7.63L18.38-21.70L18.38-21.70Q17.38-22.56 15.60-22.56ZM50.26-8.11L50.26-8.11L50.26-8.11Q51.46-7.30 51.46-5.50L51.46-5.50L51.46-5.50Q51.46-3.70 50.54-2.54L50.54-2.54L50.54-2.54Q49.63-1.39 48.14-0.62L48.14-0.62L48.14-0.62Q45.07 0.96 41.76 0.96L41.76 0.96L41.76 0.96Q38.45 0.96 36.50 0.24L36.50 0.24L36.50 0.24Q34.56-0.48 33.26-1.82L33.26-1.82L33.26-1.82Q30.72-4.37 30.72-9.02L30.72-9.02L30.72-9.02Q30.72-16.27 34.66-20.69L34.66-20.69L34.66-20.69Q38.88-25.44 46.22-25.44L46.22-25.44L46.22-25.44Q50.78-25.44 53.04-23.52L53.04-23.52L53.04-23.52Q54.72-22.08 54.72-19.73L54.72-19.73L54.72-19.73Q54.72-11.28 40.13-11.28L40.13-11.28L40.13-11.28Q39.94-10.03 39.94-8.98L39.94-8.98L39.94-8.98Q39.94-6.77 40.92-5.93L40.92-5.93L40.92-5.93Q41.90-5.09 43.73-5.09L43.73-5.09L43.73-5.09Q45.55-5.09 47.50-5.93L47.50-5.93L47.50-5.93Q49.44-6.77 50.26-8.11ZM40.46-13.34L40.46-13.34L40.46-13.34Q43.87-13.34 45.84-15.46L45.84-15.46L45.84-15.46Q47.81-17.47 47.81-20.69L47.81-20.69L47.81-20.69Q47.81-21.79 47.40-22.39L47.40-22.39L47.40-22.39Q46.99-22.99 46.18-22.99L46.18-22.99L46.18-22.99Q45.36-22.99 44.66-22.68L44.66-22.68L44.66-22.68Q43.97-22.37 43.25-21.31L43.25-21.31L43.25-21.31Q41.47-18.91 40.46-13.34ZM57.12-4.80L57.12-4.80L57.12-4.80Q57.12-6.10 57.79-9.36L57.79-9.36L60.34-22.32L57.50-22.32L57.70-23.76L57.70-23.76Q63.46-25.49 69.02-29.71L69.02-29.71L71.33-29.71L70.18-24.48L73.92-24.48L73.49-22.32L69.79-22.32L67.34-9.36L67.34-9.36Q66.72-6.38 66.72-5.38L66.72-5.38L66.72-5.38Q66.72-3.07 68.74-2.59L68.74-2.59L68.74-2.59Q68.26-0.96 66.53 0L66.53 0L66.53 0Q64.80 0.96 62.35 0.96L62.35 0.96L62.35 0.96Q59.90 0.96 58.51-0.58L58.51-0.58L58.51-0.58Q57.12-2.11 57.12-4.80ZM75.58-1.44L75.58-1.44L75.58-1.44Q74.45-2.69 73.94-4.66L73.94-4.66L73.94-4.66Q73.44-6.62 73.44-9.84L73.44-9.84L73.44-9.84Q73.44-13.06 74.54-15.98L74.54-15.98L74.54-15.98Q75.65-18.91 77.66-21.02L77.66-21.02L77.66-21.02Q81.79-25.44 88.61-25.44L88.61-25.44L88.61-25.44Q91.06-25.44 92.83-24.62L92.83-24.62L101.04-25.44L97.49-6.72L97.49-6.72Q97.34-6.14 97.34-5.09L97.34-5.09L97.34-5.09Q97.34-4.03 97.99-3.36L97.99-3.36L97.99-3.36Q98.64-2.69 99.60-2.59L99.60-2.59L99.60-2.59Q99.12-0.96 97.37 0L97.37 0L97.37 0Q95.62 0.96 93.65 0.96L93.65 0.96L93.65 0.96Q91.68 0.96 90.36 0.22L90.36 0.22L90.36 0.22Q89.04-0.53 88.66-1.78L88.66-1.78L88.66-1.78Q87.89-0.58 86.26 0.19L86.26 0.19L86.26 0.19Q84.62 0.96 82.44 0.96L82.44 0.96L82.44 0.96Q80.26 0.96 78.48 0.38L78.48 0.38L78.48 0.38Q76.70-0.19 75.58-1.44ZM85.70-20.93L85.70-20.93L85.70-20.93Q85.15-20.06 84.67-18.60L84.67-18.60L84.67-18.60Q84.19-17.14 83.40-13.22L83.40-13.22L83.40-13.22Q82.61-9.31 82.61-6.53L82.61-6.53L82.61-6.53Q82.61-3.74 83.04-2.93L83.04-2.93L83.04-2.93Q83.47-2.11 84.24-2.11L84.24-2.11L84.24-2.11Q85.78-2.11 86.90-3.58L86.90-3.58L86.90-3.58Q88.03-5.04 88.46-7.63L88.46-7.63L91.01-21.70L91.01-21.70Q90.00-22.56 88.82-22.56L88.82-22.56L88.82-22.56Q87.65-22.56 86.95-22.18L86.95-22.18L86.95-22.18Q86.26-21.79 85.70-20.93ZM115.15-2.64L115.15-2.64L115.15-2.64Q113.66 0.96 108.91 0.96L108.91 0.96L108.91 0.96Q106.46 0.96 104.93-0.72L104.93-0.72L104.93-0.72Q103.63-2.21 103.63-3.70L103.63-3.70L103.63-3.70Q103.63-7.58 105.41-15.17L105.41-15.17L107.18-24.48L116.93-25.44L114.00-10.27L114.00-10.27Q113.18-6.72 113.18-5.47L113.18-5.47L113.18-5.47Q113.18-2.74 115.15-2.64ZM108.05-31.15L108.05-31.15L108.05-31.15Q108.05-33.02 109.61-34.03L109.61-34.03L109.61-34.03Q111.17-35.04 113.42-35.04L113.42-35.04L113.42-35.04Q115.68-35.04 117.05-34.03L117.05-34.03L117.05-34.03Q118.42-33.02 118.42-31.15L118.42-31.15L118.42-31.15Q118.42-29.28 116.90-28.32L116.90-28.32L116.90-28.32Q115.39-27.36 113.14-27.36L113.14-27.36L113.14-27.36Q110.88-27.36 109.46-28.32L109.46-28.32L109.46-28.32Q108.05-29.28 108.05-31.15ZM130.70-2.64L130.70-2.64L130.70-2.64Q129.22 0.96 124.46 0.96L124.46 0.96L124.46 0.96Q122.06 0.96 120.53-0.72L120.53-0.72L120.53-0.72Q119.28-2.11 119.28-3.70L119.28-3.70L119.28-3.70Q119.28-7.30 120.96-15.17L120.96-15.17L124.46-33.60L134.21-34.56L129.55-10.27L129.55-10.27Q128.74-6.72 128.74-5.47L128.74-5.47L128.74-5.47Q128.74-2.74 130.70-2.64ZM149.14-16.85L149.14-16.85L149.14-16.85Q149.81-18.62 149.81-20.16L149.81-20.16L149.81-20.16Q149.81-22.99 147.50-22.99L147.50-22.99L147.50-22.99Q146.30-22.99 145.32-21.91L145.32-21.91L145.32-21.91Q144.34-20.83 144.34-19.49L144.34-19.49L144.34-19.49Q144.34-18.53 145.10-17.76L145.10-17.76L145.10-17.76Q146.21-16.70 149.04-14.98L149.04-14.98L149.04-14.98Q151.87-13.25 152.95-11.83L152.95-11.83L152.95-11.83Q154.03-10.42 154.03-8.47L154.03-8.47L154.03-8.47Q154.03-6.53 153.10-4.75L153.10-4.75L153.10-4.75Q152.16-2.98 150.48-1.73L150.48-1.73L150.48-1.73Q146.88 0.96 141.12 0.96L141.12 0.96L141.12 0.96Q138.00 0.96 135.60-0.67L135.60-0.67L135.60-0.67Q133.20-2.26 133.20-4.13L133.20-4.13L133.20-4.13Q133.20-6 134.57-7.10L134.57-7.10L134.57-7.10Q135.94-8.21 137.95-8.21L137.95-8.21L137.95-8.21Q139.97-8.21 141.22-7.44L141.22-7.44L141.22-7.44Q140.59-5.86 140.59-4.80L140.59-4.80L140.59-4.80Q140.59-1.63 143.28-1.63L143.28-1.63L143.28-1.63Q144.43-1.63 145.20-2.35L145.20-2.35L145.20-2.35Q145.97-3.07 145.97-4.32L145.97-4.32L145.97-4.32Q145.97-6.77 141.84-9.36L141.84-9.36L141.84-9.36Q138.48-11.57 137.71-12.43L137.71-12.43L137.71-12.43Q136.42-13.97 136.42-15.89L136.42-15.89L136.42-15.89Q136.42-17.81 137.33-19.63L137.33-19.63L137.33-19.63Q138.24-21.46 139.92-22.75L139.92-22.75L139.92-22.75Q143.42-25.44 149.52-25.44L149.52-25.44L149.52-25.44Q152.64-25.44 154.49-24.19L154.49-24.19L154.49-24.19Q156.34-22.94 156.34-20.83L156.34-20.83L156.34-20.83Q156.34-18.72 155.06-17.52L155.06-17.52L155.06-17.52Q153.79-16.32 151.49-16.32L151.49-16.32L151.49-16.32Q149.90-16.32 149.14-16.85Z" fill="#ccc"></path></g></g><style>text {
  font-size: 64px;
  font-family: Arial Black;
  dominant-baseline: central;
  text-anchor: middle;
}</style></svg>